<svg width="26" height="26" viewBox="0 0 26 26" fill="none" xmlns="http://www.w3.org/2000/svg">
<path d="M9.4 1H2.2C1.53726 1 1 1.53726 1 2.2V9.4C1 10.0627 1.53726 10.6 2.2 10.6H9.4C10.0627 10.6 10.6 10.0627 10.6 9.4V2.2C10.6 1.53726 10.0627 1 9.4 1Z" stroke="#319945" stroke-width="2" stroke-linecap="round" stroke-linejoin="round"/>
<path d="M9.4 15.4H2.2C1.53726 15.4 1 15.9373 1 16.6V23.8C1 24.4627 1.53726 25 2.2 25H9.4C10.0627 25 10.6 24.4627 10.6 23.8V16.6C10.6 15.9373 10.0627 15.4 9.4 15.4Z" stroke="#319945" stroke-width="2" stroke-linecap="round" stroke-linejoin="round"/>
<path d="M23.8 1H16.6C15.9373 1 15.4 1.53726 15.4 2.2V9.4C15.4 10.0627 15.9373 10.6 16.6 10.6H23.8C24.4627 10.6 25 10.0627 25 9.4V2.2C25 1.53726 24.4627 1 23.8 1Z" stroke="#319945" stroke-width="2" stroke-linecap="round" stroke-linejoin="round"/>
<path d="M15.4 15.4V20.2" stroke="#319945" stroke-width="2" stroke-linecap="round" stroke-linejoin="round"/>
<path d="M15.4 25H20.2V15.4" stroke="#319945" stroke-width="2" stroke-linecap="round" stroke-linejoin="round"/>
<path d="M20.2 17.8H25" stroke="#319945" stroke-width="2" stroke-linecap="round" stroke-linejoin="round"/>
<path d="M25 22.6V25" stroke="#319945" stroke-width="2" stroke-linecap="round" stroke-linejoin="round"/>
</svg>
