<svg width="36" height="46" viewBox="0 0 36 46" fill="none" xmlns="http://www.w3.org/2000/svg">
<path d="M1.00426 42V31.8182H4.82244C5.60464 31.8182 6.26089 31.964 6.79119 32.2557C7.32481 32.5473 7.72751 32.9484 7.99929 33.4588C8.27438 33.9659 8.41193 34.5426 8.41193 35.1889C8.41193 35.8419 8.27438 36.4219 7.99929 36.929C7.7242 37.4361 7.31818 37.8355 6.78125 38.1271C6.24432 38.4155 5.5831 38.5597 4.79759 38.5597H2.26705V37.0433H4.54901C5.00639 37.0433 5.38092 36.9638 5.67259 36.8047C5.96425 36.6456 6.17969 36.4268 6.31889 36.1484C6.46141 35.87 6.53267 35.5502 6.53267 35.1889C6.53267 34.8277 6.46141 34.5095 6.31889 34.2344C6.17969 33.9593 5.9626 33.7455 5.66761 33.593C5.37595 33.4373 4.99976 33.3594 4.53906 33.3594H2.84872V42H1.00426ZM11.0152 42.1541C10.5313 42.1541 10.0955 42.0679 9.70768 41.8956C9.32321 41.7199 9.01828 41.4614 8.7929 41.12C8.57084 40.7786 8.45981 40.3577 8.45981 39.8572C8.45981 39.4264 8.53935 39.0701 8.69844 38.7884C8.85754 38.5066 9.07463 38.2812 9.34972 38.1122C9.62482 37.9432 9.93471 37.8156 10.2794 37.7294C10.6274 37.6399 10.987 37.5753 11.3582 37.5355C11.8057 37.4891 12.1686 37.4477 12.447 37.4112C12.7254 37.3714 12.9276 37.3118 13.0536 37.2322C13.1828 37.1494 13.2475 37.0218 13.2475 36.8494V36.8196C13.2475 36.4451 13.1364 36.1551 12.9144 35.9496C12.6923 35.7441 12.3725 35.6413 11.9548 35.6413C11.514 35.6413 11.1644 35.7375 10.9058 35.9297C10.6506 36.1219 10.4783 36.349 10.3888 36.6108L8.70839 36.3722C8.84096 35.9081 9.05971 35.5204 9.36464 35.2088C9.66956 34.8939 10.0424 34.6586 10.4832 34.5028C10.9241 34.3438 11.4113 34.2642 11.9449 34.2642C12.3128 34.2642 12.679 34.3073 13.0436 34.3935C13.4082 34.4796 13.7413 34.6222 14.0429 34.821C14.3445 35.0166 14.5865 35.2834 14.7688 35.6214C14.9544 35.9595 15.0472 36.3821 15.0472 36.8892V42H13.3171V40.951H13.2574C13.148 41.1631 12.9939 41.362 12.795 41.5476C12.5995 41.7299 12.3526 41.8774 12.0543 41.9901C11.7593 42.0994 11.4129 42.1541 11.0152 42.1541ZM11.4825 40.8317C11.8438 40.8317 12.157 40.7604 12.4222 40.6179C12.6873 40.4721 12.8912 40.2798 13.0337 40.0412C13.1795 39.8026 13.2524 39.5424 13.2524 39.2607V38.3608C13.1961 38.4072 13.1 38.4503 12.9641 38.4901C12.8315 38.5298 12.6823 38.5646 12.5166 38.5945C12.3509 38.6243 12.1868 38.6508 12.0244 38.674C11.862 38.6972 11.7212 38.7171 11.6019 38.7337C11.3334 38.7701 11.0931 38.8298 10.881 38.9126C10.6689 38.9955 10.5015 39.1115 10.3788 39.2607C10.2562 39.4065 10.1949 39.5954 10.1949 39.8274C10.1949 40.1589 10.3159 40.4091 10.5578 40.5781C10.7998 40.7472 11.108 40.8317 11.4825 40.8317ZM19.1978 45.0227C18.5515 45.0227 17.9964 44.9349 17.5324 44.7592C17.0683 44.5869 16.6955 44.3549 16.4138 44.0632C16.132 43.7715 15.9365 43.4484 15.8271 43.0938L17.4478 42.701C17.5208 42.8501 17.6268 42.9976 17.766 43.1435C17.9052 43.2926 18.0925 43.4152 18.3278 43.5114C18.5665 43.6108 18.8664 43.6605 19.2277 43.6605C19.7381 43.6605 20.1607 43.5362 20.4954 43.2876C20.8302 43.0424 20.9976 42.638 20.9976 42.0746V40.6278H20.9081C20.8153 40.8134 20.6794 41.004 20.5004 41.1996C20.3247 41.3951 20.0911 41.5592 19.7994 41.6918C19.5111 41.8243 19.1481 41.8906 18.7106 41.8906C18.124 41.8906 17.592 41.7531 17.1148 41.478C16.6408 41.1996 16.263 40.7853 15.9812 40.2351C15.7028 39.6816 15.5636 38.9889 15.5636 38.157C15.5636 37.3184 15.7028 36.6108 15.9812 36.0341C16.263 35.4541 16.6425 35.0149 17.1197 34.7166C17.597 34.415 18.129 34.2642 18.7156 34.2642C19.163 34.2642 19.5309 34.3404 19.8193 34.4929C20.111 34.642 20.343 34.8227 20.5153 35.0348C20.6877 35.2436 20.8186 35.4408 20.9081 35.6264H21.0075V34.3636H22.7824V42.1243C22.7824 42.7772 22.6266 43.3175 22.315 43.745C22.0035 44.1726 21.5776 44.4924 21.0373 44.7045C20.4971 44.9167 19.8839 45.0227 19.1978 45.0227ZM19.2128 40.4787C19.5939 40.4787 19.9187 40.3859 20.1872 40.2003C20.4557 40.0147 20.6595 39.7479 20.7987 39.3999C20.9379 39.0518 21.0075 38.6342 21.0075 38.147C21.0075 37.6664 20.9379 37.2455 20.7987 36.8842C20.6628 36.523 20.4606 36.2429 20.1922 36.044C19.927 35.8419 19.6005 35.7408 19.2128 35.7408C18.8117 35.7408 18.477 35.8452 18.2085 36.054C17.94 36.2628 17.7379 36.5495 17.602 36.9141C17.4661 37.2753 17.3981 37.6863 17.3981 38.147C17.3981 38.6143 17.4661 39.0237 17.602 39.375C17.7412 39.723 17.945 39.9948 18.2135 40.1903C18.4853 40.3826 18.8184 40.4787 19.2128 40.4787ZM25.8443 42.1541C25.3604 42.1541 24.9245 42.0679 24.5367 41.8956C24.1523 41.7199 23.8473 41.4614 23.622 41.12C23.3999 40.7786 23.2889 40.3577 23.2889 39.8572C23.2889 39.4264 23.3684 39.0701 23.5275 38.7884C23.6866 38.5066 23.9037 38.2812 24.1788 38.1122C24.4539 37.9432 24.7638 37.8156 25.1085 37.7294C25.4565 37.6399 25.8161 37.5753 26.1873 37.5355C26.6348 37.4891 26.9977 37.4477 27.2761 37.4112C27.5545 37.3714 27.7567 37.3118 27.8826 37.2322C28.0119 37.1494 28.0765 37.0218 28.0765 36.8494V36.8196C28.0765 36.4451 27.9655 36.1551 27.7434 35.9496C27.5214 35.7441 27.2015 35.6413 26.7839 35.6413C26.3431 35.6413 25.9934 35.7375 25.7349 35.9297C25.4797 36.1219 25.3073 36.349 25.2178 36.6108L23.5374 36.3722C23.67 35.9081 23.8888 35.5204 24.1937 35.2088C24.4986 34.8939 24.8715 34.6586 25.3123 34.5028C25.7531 34.3438 26.2403 34.2642 26.774 34.2642C27.1419 34.2642 27.5081 34.3073 27.8727 34.3935C28.2373 34.4796 28.5704 34.6222 28.872 34.821C29.1736 35.0166 29.4155 35.2834 29.5978 35.6214C29.7834 35.9595 29.8762 36.3821 29.8762 36.8892V42H28.1461V40.951H28.0865C27.9771 41.1631 27.823 41.362 27.6241 41.5476C27.4285 41.7299 27.1816 41.8774 26.8833 41.9901C26.5883 42.0994 26.242 42.1541 25.8443 42.1541ZM26.3116 40.8317C26.6729 40.8317 26.9861 40.7604 27.2512 40.6179C27.5164 40.4721 27.7202 40.2798 27.8627 40.0412C28.0086 39.8026 28.0815 39.5424 28.0815 39.2607V38.3608C28.0251 38.4072 27.929 38.4503 27.7931 38.4901C27.6606 38.5298 27.5114 38.5646 27.3457 38.5945C27.18 38.6243 27.0159 38.6508 26.8535 38.674C26.6911 38.6972 26.5502 38.7171 26.4309 38.7337C26.1624 38.7701 25.9222 38.8298 25.71 38.9126C25.4979 38.9955 25.3305 39.1115 25.2079 39.2607C25.0853 39.4065 25.024 39.5954 25.024 39.8274C25.024 40.1589 25.1449 40.4091 25.3869 40.5781C25.6288 40.7472 25.9371 40.8317 26.3116 40.8317ZM30.7059 42V34.3636H32.4509V35.6364H32.5305C32.6697 35.1955 32.9083 34.8558 33.2464 34.6172C33.5878 34.3752 33.9772 34.2543 34.4147 34.2543C34.5141 34.2543 34.6252 34.2592 34.7478 34.2692C34.8737 34.2758 34.9781 34.2874 35.061 34.304V35.9595C34.9848 35.933 34.8638 35.9098 34.6981 35.8899C34.5357 35.8667 34.3782 35.8551 34.2258 35.8551C33.8976 35.8551 33.6027 35.9264 33.3408 36.0689C33.0823 36.2081 32.8785 36.402 32.7293 36.6506C32.5802 36.8991 32.5056 37.1858 32.5056 37.5107V42H30.7059Z" fill="#2D2D87"/>
<path d="M13.4 1H6.2C5.53726 1 5 1.53726 5 2.2V9.4C5 10.0627 5.53726 10.6 6.2 10.6H13.4C14.0627 10.6 14.6 10.0627 14.6 9.4V2.2C14.6 1.53726 14.0627 1 13.4 1Z" stroke="#2D2D87" stroke-width="2" stroke-linecap="round" stroke-linejoin="round"/>
<path d="M13.4 15.4H6.2C5.53726 15.4 5 15.9373 5 16.6V23.8C5 24.4627 5.53726 25 6.2 25H13.4C14.0627 25 14.6 24.4627 14.6 23.8V16.6C14.6 15.9373 14.0627 15.4 13.4 15.4Z" stroke="#2D2D87" stroke-width="2" stroke-linecap="round" stroke-linejoin="round"/>
<path d="M27.8 1H20.6C19.9373 1 19.4 1.53726 19.4 2.2V9.4C19.4 10.0627 19.9373 10.6 20.6 10.6H27.8C28.4628 10.6 29 10.0627 29 9.4V2.2C29 1.53726 28.4628 1 27.8 1Z" stroke="#2D2D87" stroke-width="2" stroke-linecap="round" stroke-linejoin="round"/>
<path d="M19.4 15.4V20.2" stroke="#2D2D87" stroke-width="2" stroke-linecap="round" stroke-linejoin="round"/>
<path d="M19.4 25H24.2V15.4" stroke="#2D2D87" stroke-width="2" stroke-linecap="round" stroke-linejoin="round"/>
<path d="M24.2 17.8H29" stroke="#2D2D87" stroke-width="2" stroke-linecap="round" stroke-linejoin="round"/>
<path d="M29 22.6V25" stroke="#2D2D87" stroke-width="2" stroke-linecap="round" stroke-linejoin="round"/>
</svg>
