<svg width="42" height="44" viewBox="0 0 42 44" fill="none" xmlns="http://www.w3.org/2000/svg">
<path d="M7.42259 31.8182H9.26705V38.4702C9.26705 39.1993 9.0947 39.8407 8.75 40.3942C8.40862 40.9477 7.92803 41.3802 7.30824 41.6918C6.68845 42 5.96425 42.1541 5.13565 42.1541C4.30374 42.1541 3.57789 42 2.9581 41.6918C2.33831 41.3802 1.85772 40.9477 1.51634 40.3942C1.17495 39.8407 1.00426 39.1993 1.00426 38.4702V31.8182H2.84872V38.3161C2.84872 38.7403 2.94152 39.1181 3.12713 39.4496C3.31605 39.781 3.5812 40.0412 3.92259 40.2301C4.26397 40.4157 4.66832 40.5085 5.13565 40.5085C5.60298 40.5085 6.00734 40.4157 6.34872 40.2301C6.69342 40.0412 6.95857 39.781 7.14418 39.4496C7.32978 39.1181 7.42259 38.7403 7.42259 38.3161V31.8182ZM14.0255 34.3636V35.7557H9.63559V34.3636H14.0255ZM10.7194 32.5341H12.5191V39.7031C12.5191 39.9451 12.5556 40.1307 12.6285 40.2599C12.7047 40.3859 12.8042 40.4721 12.9268 40.5185C13.0494 40.5649 13.1853 40.5881 13.3345 40.5881C13.4471 40.5881 13.5499 40.5798 13.6427 40.5632C13.7388 40.5466 13.8117 40.5317 13.8614 40.5185L14.1647 41.9254C14.0686 41.9586 13.931 41.995 13.7521 42.0348C13.5764 42.0746 13.361 42.0978 13.1058 42.1044C12.655 42.1177 12.249 42.0497 11.8877 41.9006C11.5265 41.7481 11.2398 41.5128 11.0276 41.1946C10.8188 40.8764 10.7161 40.4787 10.7194 40.0014V32.5341ZM14.5507 42V34.3636H16.3504V42H14.5507ZM15.4555 33.2798C15.1704 33.2798 14.9252 33.1854 14.7197 32.9964C14.5142 32.8042 14.4114 32.5739 14.4114 32.3054C14.4114 32.0336 14.5142 31.8033 14.7197 31.6143C14.9252 31.4221 15.1704 31.326 15.4555 31.326C15.7438 31.326 15.9891 31.4221 16.1913 31.6143C16.3968 31.8033 16.4995 32.0336 16.4995 32.3054C16.4995 32.5739 16.3968 32.8042 16.1913 32.9964C15.9891 33.1854 15.7438 33.2798 15.4555 33.2798ZM19.0208 31.8182V42H17.221V31.8182H19.0208ZM19.8914 42V34.3636H21.6912V42H19.8914ZM20.7963 33.2798C20.5112 33.2798 20.266 33.1854 20.0605 32.9964C19.855 32.8042 19.7522 32.5739 19.7522 32.3054C19.7522 32.0336 19.855 31.8033 20.0605 31.6143C20.266 31.4221 20.5112 31.326 20.7963 31.326C21.0846 31.326 21.3299 31.4221 21.5321 31.6143C21.7376 31.8033 21.8403 32.0336 21.8403 32.3054C21.8403 32.5739 21.7376 32.8042 21.5321 32.9964C21.3299 33.1854 21.0846 33.2798 20.7963 33.2798ZM22.4624 42V40.8565L26.3999 35.9197V35.8551H22.5917V34.3636H28.6023V35.5916L24.8537 40.4439V40.5085H28.7316V42H22.4624ZM31.6406 42.1541C31.1567 42.1541 30.7209 42.0679 30.3331 41.8956C29.9486 41.7199 29.6437 41.4614 29.4183 41.12C29.1962 40.7786 29.0852 40.3577 29.0852 39.8572C29.0852 39.4264 29.1647 39.0701 29.3238 38.7884C29.4829 38.5066 29.7 38.2812 29.9751 38.1122C30.2502 37.9432 30.5601 37.8156 30.9048 37.7294C31.2528 37.6399 31.6124 37.5753 31.9836 37.5355C32.4311 37.4891 32.794 37.4477 33.0724 37.4112C33.3508 37.3714 33.553 37.3118 33.6789 37.2322C33.8082 37.1494 33.8728 37.0218 33.8728 36.8494V36.8196C33.8728 36.4451 33.7618 36.1551 33.5397 35.9496C33.3177 35.7441 32.9978 35.6413 32.5802 35.6413C32.1394 35.6413 31.7897 35.7375 31.5312 35.9297C31.276 36.1219 31.1037 36.349 31.0142 36.6108L29.3338 36.3722C29.4664 35.9081 29.6851 35.5204 29.99 35.2088C30.295 34.8939 30.6678 34.6586 31.1086 34.5028C31.5494 34.3438 32.0367 34.2642 32.5703 34.2642C32.9382 34.2642 33.3044 34.3073 33.669 34.3935C34.0336 34.4796 34.3667 34.6222 34.6683 34.821C34.9699 35.0166 35.2119 35.2834 35.3941 35.6214C35.5798 35.9595 35.6726 36.3821 35.6726 36.8892V42H33.9424V40.951H33.8828C33.7734 41.1631 33.6193 41.362 33.4204 41.5476C33.2249 41.7299 32.978 41.8774 32.6797 41.9901C32.3847 42.0994 32.0383 42.1541 31.6406 42.1541ZM32.1079 40.8317C32.4692 40.8317 32.7824 40.7604 33.0476 40.6179C33.3127 40.4721 33.5165 40.2798 33.6591 40.0412C33.8049 39.8026 33.8778 39.5424 33.8778 39.2607V38.3608C33.8215 38.4072 33.7253 38.4503 33.5895 38.4901C33.4569 38.5298 33.3077 38.5646 33.142 38.5945C32.9763 38.6243 32.8122 38.6508 32.6498 38.674C32.4874 38.6972 32.3466 38.7171 32.2272 38.7337C31.9588 38.7701 31.7185 38.8298 31.5064 38.9126C31.2942 38.9955 31.1269 39.1115 31.0042 39.2607C30.8816 39.4065 30.8203 39.5954 30.8203 39.8274C30.8203 40.1589 30.9413 40.4091 31.1832 40.5781C31.4252 40.7472 31.7334 40.8317 32.1079 40.8317ZM36.5022 42V34.3636H38.2472V35.6364H38.3268C38.466 35.1955 38.7046 34.8558 39.0427 34.6172C39.3841 34.3752 39.7735 34.2543 40.211 34.2543C40.3105 34.2543 40.4215 34.2592 40.5441 34.2692C40.6701 34.2758 40.7745 34.2874 40.8573 34.304V35.9595C40.7811 35.933 40.6601 35.9098 40.4944 35.8899C40.332 35.8667 40.1746 35.8551 40.0221 35.8551C39.694 35.8551 39.399 35.9264 39.1372 36.0689C38.8786 36.2081 38.6748 36.402 38.5257 36.6506C38.3765 36.8991 38.3019 37.1858 38.3019 37.5107V42H36.5022Z" fill="#2D2D87"/>
<path d="M17.4 1H10.2C9.53726 1 9 1.53726 9 2.2V9.4C9 10.0627 9.53726 10.6 10.2 10.6H17.4C18.0627 10.6 18.6 10.0627 18.6 9.4V2.2C18.6 1.53726 18.0627 1 17.4 1Z" stroke="#2D2D87" stroke-width="2" stroke-linecap="round" stroke-linejoin="round"/>
<path d="M17.4 15.4H10.2C9.53726 15.4 9 15.9373 9 16.6V23.8C9 24.4627 9.53726 25 10.2 25H17.4C18.0627 25 18.6 24.4627 18.6 23.8V16.6C18.6 15.9373 18.0627 15.4 17.4 15.4Z" stroke="#2D2D87" stroke-width="2" stroke-linecap="round" stroke-linejoin="round"/>
<path d="M31.8 1H24.6C23.9373 1 23.4 1.53726 23.4 2.2V9.4C23.4 10.0627 23.9373 10.6 24.6 10.6H31.8C32.4628 10.6 33 10.0627 33 9.4V2.2C33 1.53726 32.4628 1 31.8 1Z" stroke="#2D2D87" stroke-width="2" stroke-linecap="round" stroke-linejoin="round"/>
<path d="M23.4 15.4V20.2" stroke="#2D2D87" stroke-width="2" stroke-linecap="round" stroke-linejoin="round"/>
<path d="M23.4 25H28.2V15.4" stroke="#2D2D87" stroke-width="2" stroke-linecap="round" stroke-linejoin="round"/>
<path d="M28.2 17.8H33" stroke="#2D2D87" stroke-width="2" stroke-linecap="round" stroke-linejoin="round"/>
<path d="M33 22.6V25" stroke="#2D2D87" stroke-width="2" stroke-linecap="round" stroke-linejoin="round"/>
</svg>
