<svg width="13" height="13" viewBox="0 0 13 13" fill="none" xmlns="http://www.w3.org/2000/svg">
<rect width="12.8" height="12.8" rx="6.4" fill="#FFA000"/>
<path d="M6.40002 6.65012C6.95231 6.65012 7.40002 6.2024 7.40002 5.65012C7.40002 5.09783 6.95231 4.65012 6.40002 4.65012C5.84774 4.65012 5.40002 5.09783 5.40002 5.65012C5.40002 6.2024 5.84774 6.65012 6.40002 6.65012Z" stroke="white" stroke-width="0.5" stroke-linecap="round" stroke-linejoin="round"/>
<path d="M8.90002 5.65006C8.90002 7.90006 6.40002 9.65006 6.40002 9.65006C6.40002 9.65006 3.90002 7.90006 3.90002 5.65006C3.90002 4.98702 4.16342 4.35114 4.63226 3.8823C5.1011 3.41345 5.73698 3.15006 6.40002 3.15006C7.06307 3.15006 7.69895 3.41345 8.16779 3.8823C8.63663 4.35114 8.90002 4.98702 8.90002 5.65006V5.65006Z" stroke="white" stroke-width="0.5" stroke-linecap="round" stroke-linejoin="round"/>
</svg>
