<svg width="13" height="13" viewBox="0 0 13 13" fill="none" xmlns="http://www.w3.org/2000/svg">
<rect width="12.8" height="12.8" rx="6.4" fill="#FFA000"/>
<path d="M6.40002 3.14997V3.89997" stroke="white" stroke-width="0.487488" stroke-linecap="round" stroke-linejoin="round"/>
<path d="M6.40002 8.90006V9.65006" stroke="white" stroke-width="0.487488" stroke-linecap="round" stroke-linejoin="round"/>
<path d="M8.15002 5.14994C8.15002 4.98579 8.11769 4.82324 8.05487 4.67159C7.99206 4.51993 7.89998 4.38213 7.78391 4.26606C7.66783 4.14998 7.53004 4.05791 7.37838 3.99509C7.22672 3.93227 7.06418 3.89994 6.90002 3.89994H5.77502C5.4435 3.89994 5.12556 4.03164 4.89114 4.26606C4.65672 4.50048 4.52502 4.81842 4.52502 5.14994C4.52502 5.48146 4.65672 5.7994 4.89114 6.03382C5.12556 6.26824 5.4435 6.39994 5.77502 6.39994H7.15002C7.48155 6.39994 7.79949 6.53164 8.03391 6.76606C8.26833 7.00048 8.40002 7.31842 8.40002 7.64994C8.40002 7.98146 8.26833 8.2994 8.03391 8.53382C7.79949 8.76824 7.48155 8.89994 7.15002 8.89994H5.65002C5.3185 8.89994 5.00056 8.76824 4.76614 8.53382C4.53172 8.2994 4.40002 7.98146 4.40002 7.64994" stroke="white" stroke-width="0.487488" stroke-linecap="round" stroke-linejoin="round"/>
</svg>
